# xmcd
# 
# Track frame offsets:
#     150
#     19492
#     42132
#     66970
#     89455
#     115302
#     142980
#     168382
#     195402
#     218280
#     245805
#     273457
#     300825
# 
# Disc length: 4357
# 
# Revision: 0
# Processed by: cddbd v1.5.2PL0 Copyright (c) Steve Scherf et al.
# Submitted via: fre:ac v1.0.31
# 
DISCID=b011030d
DTITLE=ケツメイシ - ケツの嵐　～冬ベスト～
DYEAR=2011
DGENRE=Hip-Hop
TTITLE0=こっちおいで
TTITLE1=夜空ノシタ
TTITLE2=ファミリア
TTITLE3=もっと
TTITLE4=聖なる夜に
TTITLE5=夜の天使
TTITLE6=S/S
TTITLE7=闘え！サラリーマン
TTITLE8=No Lady No Life
TTITLE9=冬物語
TTITLE10=出会いのかけら
TTITLE11=あなたに会えてよかった
TTITLE12=わすれもの
EXTD=
EXTT0=
EXTT1=
EXTT2=
EXTT3=
EXTT4=
EXTT5=
EXTT6=
EXTT7=
EXTT8=
EXTT9=
EXTT10=
EXTT11=
EXTT12=
PLAYORDER=
